<svg width="1440" height="46" viewBox="0 0 1440 46" fill="none" xmlns="http://www.w3.org/2000/svg">
<rect width="153" height="46" transform="translate(1287)" fill="#19191C"/>
<path d="M1324.64 19.1911V16.9091H1335.39V19.1911H1331.38V30H1328.65V19.1911H1324.64ZM1336.09 30V20.1818H1338.73V21.8949H1338.83C1339.01 21.2855 1339.31 20.8253 1339.73 20.5142C1340.16 20.1989 1340.64 20.0412 1341.19 20.0412C1341.33 20.0412 1341.47 20.0497 1341.63 20.0668C1341.79 20.0838 1341.93 20.1072 1342.05 20.1371V22.5533C1341.92 22.5149 1341.74 22.4808 1341.52 22.451C1341.29 22.4212 1341.08 22.4062 1340.9 22.4062C1340.5 22.4062 1340.14 22.4936 1339.82 22.6683C1339.51 22.8388 1339.27 23.0774 1339.08 23.3842C1338.9 23.6911 1338.81 24.0447 1338.81 24.4453V30H1336.09ZM1343.46 30V20.1818H1346.18V30H1343.46ZM1344.82 18.9162C1344.42 18.9162 1344.07 18.782 1343.78 18.5135C1343.5 18.2408 1343.35 17.9148 1343.35 17.5355C1343.35 17.1605 1343.5 16.8388 1343.78 16.5703C1344.07 16.2976 1344.42 16.1612 1344.82 16.1612C1345.23 16.1612 1345.57 16.2976 1345.86 16.5703C1346.15 16.8388 1346.29 17.1605 1346.29 17.5355C1346.29 17.9148 1346.15 18.2408 1345.86 18.5135C1345.57 18.782 1345.23 18.9162 1344.82 18.9162ZM1351.16 30.1854C1350.53 30.1854 1349.98 30.0767 1349.49 29.8594C1349 29.6378 1348.61 29.3118 1348.32 28.8814C1348.04 28.4467 1347.9 27.9055 1347.9 27.2578C1347.9 26.7124 1348 26.2543 1348.2 25.8835C1348.4 25.5128 1348.67 25.2145 1349.02 24.9886C1349.36 24.7628 1349.76 24.5923 1350.19 24.4773C1350.64 24.3622 1351.1 24.2812 1351.59 24.2344C1352.16 24.1747 1352.62 24.1193 1352.97 24.0682C1353.32 24.0128 1353.57 23.9318 1353.73 23.8253C1353.89 23.7187 1353.97 23.5611 1353.97 23.3523V23.3139C1353.97 22.9091 1353.84 22.5959 1353.58 22.3743C1353.33 22.1527 1352.97 22.0419 1352.51 22.0419C1352.02 22.0419 1351.63 22.1506 1351.34 22.3679C1351.05 22.581 1350.86 22.8494 1350.76 23.1733L1348.25 22.9688C1348.37 22.3722 1348.62 21.8565 1349 21.4219C1349.37 20.983 1349.86 20.6463 1350.45 20.4119C1351.05 20.1733 1351.74 20.054 1352.52 20.054C1353.07 20.054 1353.59 20.1179 1354.09 20.2457C1354.59 20.3736 1355.04 20.5717 1355.42 20.8402C1355.82 21.1087 1356.12 21.4538 1356.35 21.8757C1356.58 22.2933 1356.69 22.794 1356.69 23.3778V30H1354.11V28.6385H1354.03C1353.87 28.9453 1353.66 29.2159 1353.4 29.4503C1353.13 29.6804 1352.82 29.8615 1352.44 29.9936C1352.07 30.1214 1351.65 30.1854 1351.16 30.1854ZM1351.94 28.3061C1352.34 28.3061 1352.69 28.2273 1353 28.0696C1353.31 27.9077 1353.55 27.6903 1353.72 27.4176C1353.9 27.1449 1353.99 26.8359 1353.99 26.4908V25.4489C1353.9 25.5043 1353.78 25.5554 1353.63 25.6023C1353.49 25.6449 1353.32 25.6854 1353.14 25.7237C1352.96 25.7578 1352.77 25.7898 1352.59 25.8196C1352.41 25.8452 1352.24 25.8686 1352.09 25.8899C1351.77 25.9368 1351.49 26.0114 1351.26 26.1136C1351.02 26.2159 1350.83 26.3544 1350.7 26.5291C1350.57 26.6996 1350.5 26.9126 1350.5 27.1683C1350.5 27.5391 1350.64 27.8224 1350.9 28.0185C1351.18 28.2102 1351.52 28.3061 1351.94 28.3061ZM1361.52 16.9091V30H1358.8V16.9091H1361.52ZM1373.15 20.1818V22.2273H1367.09V20.1818H1373.15ZM1368.48 30V19.4723C1368.48 18.7607 1368.62 18.1705 1368.89 17.7017C1369.18 17.233 1369.56 16.8814 1370.05 16.647C1370.53 16.4126 1371.08 16.2955 1371.7 16.2955C1372.12 16.2955 1372.5 16.3274 1372.84 16.3913C1373.19 16.4553 1373.45 16.5128 1373.62 16.5639L1373.14 18.6094C1373.03 18.5753 1372.9 18.5433 1372.74 18.5135C1372.59 18.4837 1372.43 18.4688 1372.27 18.4688C1371.87 18.4688 1371.59 18.5625 1371.43 18.75C1371.27 18.9332 1371.2 19.1911 1371.2 19.5234V30H1368.48ZM1374.82 30V20.1818H1377.46V21.8949H1377.56C1377.74 21.2855 1378.04 20.8253 1378.46 20.5142C1378.88 20.1989 1379.37 20.0412 1379.92 20.0412C1380.05 20.0412 1380.2 20.0497 1380.36 20.0668C1380.51 20.0838 1380.65 20.1072 1380.77 20.1371V22.5533C1380.64 22.5149 1380.47 22.4808 1380.24 22.451C1380.02 22.4212 1379.81 22.4062 1379.62 22.4062C1379.22 22.4062 1378.86 22.4936 1378.55 22.6683C1378.24 22.8388 1377.99 23.0774 1377.81 23.3842C1377.63 23.6911 1377.54 24.0447 1377.54 24.4453V30H1374.82ZM1386.2 30.1918C1385.19 30.1918 1384.32 29.9872 1383.59 29.5781C1382.87 29.1648 1382.31 28.581 1381.92 27.8267C1381.52 27.0682 1381.33 26.1712 1381.33 25.1357C1381.33 24.1257 1381.52 23.2393 1381.92 22.4766C1382.31 21.7138 1382.86 21.1193 1383.57 20.6932C1384.29 20.267 1385.13 20.054 1386.09 20.054C1386.74 20.054 1387.34 20.1584 1387.9 20.3672C1388.46 20.5717 1388.95 20.8807 1389.37 21.294C1389.79 21.7074 1390.12 22.2273 1390.35 22.8537C1390.59 23.4759 1390.7 24.2045 1390.7 25.0398V25.7876H1382.41V24.1001H1388.14C1388.14 23.7081 1388.06 23.3608 1387.89 23.0582C1387.71 22.7557 1387.48 22.5192 1387.18 22.3487C1386.88 22.174 1386.53 22.0866 1386.13 22.0866C1385.72 22.0866 1385.35 22.1825 1385.03 22.3743C1384.72 22.5618 1384.47 22.8153 1384.29 23.1349C1384.11 23.4503 1384.02 23.8018 1384.02 24.1896V25.794C1384.02 26.2798 1384.11 26.6996 1384.29 27.0533C1384.47 27.407 1384.73 27.6797 1385.06 27.8714C1385.39 28.0632 1385.79 28.1591 1386.24 28.1591C1386.55 28.1591 1386.82 28.1165 1387.07 28.0312C1387.32 27.946 1387.54 27.8182 1387.72 27.6477C1387.9 27.4773 1388.03 27.2685 1388.13 27.0213L1390.65 27.1875C1390.52 27.7926 1390.26 28.321 1389.86 28.7727C1389.47 29.2202 1388.96 29.5696 1388.34 29.821C1387.72 30.0682 1387.01 30.1918 1386.2 30.1918ZM1396.96 30.1918C1395.95 30.1918 1395.08 29.9872 1394.35 29.5781C1393.62 29.1648 1393.06 28.581 1392.67 27.8267C1392.28 27.0682 1392.08 26.1712 1392.08 25.1357C1392.08 24.1257 1392.28 23.2393 1392.67 22.4766C1393.06 21.7138 1393.62 21.1193 1394.33 20.6932C1395.04 20.267 1395.88 20.054 1396.85 20.054C1397.49 20.054 1398.1 20.1584 1398.66 20.3672C1399.22 20.5717 1399.71 20.8807 1400.13 21.294C1400.55 21.7074 1400.88 22.2273 1401.11 22.8537C1401.34 23.4759 1401.46 24.2045 1401.46 25.0398V25.7876H1393.17V24.1001H1398.9C1398.9 23.7081 1398.81 23.3608 1398.64 23.0582C1398.47 22.7557 1398.24 22.5192 1397.93 22.3487C1397.64 22.174 1397.29 22.0866 1396.89 22.0866C1396.48 22.0866 1396.11 22.1825 1395.79 22.3743C1395.48 22.5618 1395.23 22.8153 1395.05 23.1349C1394.87 23.4503 1394.78 23.8018 1394.78 24.1896V25.794C1394.78 26.2798 1394.87 26.6996 1395.04 27.0533C1395.23 27.407 1395.49 27.6797 1395.82 27.8714C1396.15 28.0632 1396.54 28.1591 1397 28.1591C1397.3 28.1591 1397.58 28.1165 1397.83 28.0312C1398.08 27.946 1398.3 27.8182 1398.48 27.6477C1398.66 27.4773 1398.79 27.2685 1398.89 27.0213L1401.4 27.1875C1401.28 27.7926 1401.01 28.321 1400.62 28.7727C1400.23 29.2202 1399.72 29.5696 1399.1 29.821C1398.48 30.0682 1397.77 30.1918 1396.96 30.1918Z" fill="#EFEFF2"/>
<path d="M1188.41 19.5078C1188.35 18.9496 1188.09 18.5149 1187.65 18.2038C1187.21 17.8928 1186.64 17.7372 1185.94 17.7372C1185.44 17.7372 1185.02 17.8118 1184.67 17.9609C1184.31 18.1101 1184.04 18.3125 1183.85 18.5682C1183.67 18.8239 1183.57 19.1158 1183.57 19.4439C1183.57 19.7166 1183.63 19.9531 1183.75 20.1534C1183.88 20.3537 1184.05 20.5241 1184.27 20.6648C1184.49 20.8011 1184.73 20.9162 1184.99 21.0099C1185.26 21.1037 1185.52 21.1825 1185.79 21.2464L1187.02 21.5533C1187.51 21.6683 1187.99 21.8239 1188.44 22.0199C1188.9 22.2159 1189.32 22.4631 1189.68 22.7614C1190.04 23.0597 1190.33 23.4197 1190.55 23.8416C1190.76 24.2635 1190.87 24.7578 1190.87 25.3246C1190.87 26.0916 1190.67 26.767 1190.28 27.3509C1189.89 27.9304 1189.32 28.3842 1188.58 28.7124C1187.84 29.0362 1186.95 29.1982 1185.9 29.1982C1184.88 29.1982 1184 29.0405 1183.25 28.7251C1182.5 28.4098 1181.92 27.9496 1181.5 27.3445C1181.08 26.7393 1180.85 26.0021 1180.82 25.1328H1183.15C1183.19 25.5888 1183.33 25.968 1183.57 26.2706C1183.82 26.5732 1184.14 26.799 1184.54 26.9482C1184.94 27.0973 1185.39 27.1719 1185.88 27.1719C1186.4 27.1719 1186.85 27.0952 1187.24 26.9418C1187.63 26.7841 1187.93 26.5668 1188.16 26.2898C1188.38 26.0085 1188.49 25.6804 1188.5 25.3054C1188.49 24.9645 1188.39 24.6832 1188.19 24.4616C1188 24.2358 1187.72 24.0483 1187.37 23.8991C1187.02 23.7457 1186.61 23.6094 1186.14 23.4901L1184.65 23.1065C1183.58 22.8295 1182.72 22.4098 1182.1 21.8473C1181.47 21.2805 1181.16 20.5284 1181.16 19.5909C1181.16 18.8196 1181.37 18.1442 1181.79 17.5646C1182.21 16.9851 1182.78 16.5355 1183.51 16.2159C1184.23 15.892 1185.05 15.7301 1185.97 15.7301C1186.9 15.7301 1187.71 15.892 1188.41 16.2159C1189.12 16.5355 1189.67 16.9808 1190.07 17.5518C1190.47 18.1186 1190.67 18.7706 1190.69 19.5078H1188.41ZM1192.88 29V19.1818H1195.19V29H1192.88ZM1194.04 17.7884C1193.68 17.7884 1193.36 17.6669 1193.1 17.424C1192.83 17.1768 1192.7 16.8807 1192.7 16.5355C1192.7 16.1861 1192.83 15.8899 1193.1 15.647C1193.36 15.3999 1193.68 15.2763 1194.04 15.2763C1194.41 15.2763 1194.73 15.3999 1194.99 15.647C1195.25 15.8899 1195.38 16.1861 1195.38 16.5355C1195.38 16.8807 1195.25 17.1768 1194.99 17.424C1194.73 17.6669 1194.41 17.7884 1194.04 17.7884ZM1201.84 32.8864C1201.01 32.8864 1200.3 32.7734 1199.7 32.5476C1199.1 32.326 1198.62 32.0277 1198.26 31.6527C1197.9 31.2777 1197.65 30.8622 1197.51 30.4062L1199.59 29.9013C1199.69 30.093 1199.82 30.2827 1200 30.4702C1200.18 30.6619 1200.42 30.8196 1200.72 30.9432C1201.03 31.071 1201.42 31.1349 1201.88 31.1349C1202.54 31.1349 1203.08 30.9751 1203.51 30.6555C1203.94 30.3402 1204.16 29.8203 1204.16 29.0959V27.2358H1204.04C1203.92 27.4744 1203.75 27.7195 1203.52 27.9709C1203.29 28.2223 1202.99 28.4332 1202.62 28.6037C1202.24 28.7741 1201.78 28.8594 1201.22 28.8594C1200.46 28.8594 1199.78 28.6825 1199.16 28.3288C1198.55 27.9709 1198.07 27.4382 1197.71 26.7308C1197.35 26.0192 1197.17 25.1286 1197.17 24.0589C1197.17 22.9808 1197.35 22.071 1197.71 21.3295C1198.07 20.5838 1198.56 20.0192 1199.17 19.6357C1199.78 19.2479 1200.47 19.054 1201.22 19.054C1201.8 19.054 1202.27 19.152 1202.64 19.348C1203.02 19.5398 1203.31 19.772 1203.54 20.0447C1203.76 20.3132 1203.93 20.5668 1204.04 20.8054H1204.17V19.1818H1206.45V29.1598C1206.45 29.9993 1206.25 30.6939 1205.85 31.2436C1205.45 31.7933 1204.9 32.2045 1204.21 32.4773C1203.51 32.75 1202.72 32.8864 1201.84 32.8864ZM1201.86 27.044C1202.35 27.044 1202.77 26.9247 1203.11 26.6861C1203.46 26.4474 1203.72 26.1044 1203.9 25.657C1204.08 25.2095 1204.17 24.6726 1204.17 24.0462C1204.17 23.4283 1204.08 22.8871 1203.9 22.4226C1203.73 21.9581 1203.47 21.598 1203.12 21.3423C1202.78 21.0824 1202.36 20.9524 1201.86 20.9524C1201.35 20.9524 1200.91 21.0866 1200.57 21.3551C1200.22 21.6236 1199.96 21.9922 1199.79 22.4609C1199.62 22.9254 1199.53 23.4538 1199.53 24.0462C1199.53 24.647 1199.62 25.1733 1199.79 25.625C1199.97 26.0724 1200.23 26.4219 1200.58 26.6733C1200.93 26.9205 1201.35 27.044 1201.86 27.044ZM1211.14 23.2472V29H1208.82V19.1818H1211.03V20.8501H1211.15C1211.37 20.3004 1211.73 19.8636 1212.23 19.5398C1212.73 19.2159 1213.34 19.054 1214.08 19.054C1214.75 19.054 1215.34 19.1989 1215.85 19.4886C1216.35 19.7784 1216.75 20.1982 1217.02 20.7479C1217.3 21.2976 1217.44 21.9645 1217.44 22.7486V29H1215.12V23.1065C1215.12 22.4503 1214.95 21.9368 1214.61 21.5661C1214.28 21.1953 1213.81 21.0099 1213.21 21.0099C1212.81 21.0099 1212.45 21.0994 1212.13 21.2784C1211.82 21.4531 1211.58 21.7067 1211.4 22.0391C1211.22 22.3714 1211.14 22.7741 1211.14 23.2472ZM1226.73 15.9091V29H1224.36V15.9091H1226.73ZM1231.51 23.2472V29H1229.19V19.1818H1231.41V20.8501H1231.52C1231.75 20.3004 1232.11 19.8636 1232.6 19.5398C1233.1 19.2159 1233.72 19.054 1234.45 19.054C1235.13 19.054 1235.72 19.1989 1236.22 19.4886C1236.73 19.7784 1237.12 20.1982 1237.4 20.7479C1237.68 21.2976 1237.82 21.9645 1237.81 22.7486V29H1235.5V23.1065C1235.5 22.4503 1235.33 21.9368 1234.99 21.5661C1234.65 21.1953 1234.18 21.0099 1233.59 21.0099C1233.18 21.0099 1232.82 21.0994 1232.51 21.2784C1232.19 21.4531 1231.95 21.7067 1231.77 22.0391C1231.6 22.3714 1231.51 22.7741 1231.51 23.2472Z" fill="#19191C"/>
<path d="M1120 21L1126 27L1132 21" stroke="#19191C" stroke-width="2" stroke-linecap="square"/>
<path d="M1091.29 29V15.9091H1099.81V17.897H1093.66V21.451H1099.36V23.4389H1093.66V27.0121H1099.86V29H1091.29ZM1104.44 23.2472V29H1102.12V19.1818H1104.33V20.8501H1104.45C1104.68 20.3004 1105.04 19.8636 1105.53 19.5398C1106.03 19.2159 1106.64 19.054 1107.38 19.054C1108.05 19.054 1108.64 19.1989 1109.15 19.4886C1109.65 19.7784 1110.05 20.1982 1110.32 20.7479C1110.6 21.2976 1110.74 21.9645 1110.74 22.7486V29H1108.43V23.1065C1108.43 22.4503 1108.25 21.9368 1107.91 21.5661C1107.58 21.1953 1107.11 21.0099 1106.51 21.0099C1106.11 21.0099 1105.75 21.0994 1105.43 21.2784C1105.12 21.4531 1104.88 21.7067 1104.7 22.0391C1104.52 22.3714 1104.44 22.7741 1104.44 23.2472Z" fill="#19191C"/>
<path d="M225.496 20.326H223.106C223.038 19.9339 222.912 19.5866 222.729 19.2841C222.545 18.9773 222.317 18.7173 222.045 18.5043C221.772 18.2912 221.461 18.1314 221.112 18.0249C220.766 17.9141 220.393 17.8587 219.993 17.8587C219.281 17.8587 218.651 18.0376 218.101 18.3956C217.551 18.7493 217.121 19.2692 216.81 19.9553C216.499 20.6371 216.343 21.4702 216.343 22.4545C216.343 23.456 216.499 24.2997 216.81 24.9858C217.125 25.6676 217.555 26.1832 218.101 26.5327C218.651 26.8778 219.279 27.0504 219.987 27.0504C220.379 27.0504 220.745 26.9993 221.086 26.897C221.431 26.7905 221.74 26.6349 222.013 26.4304C222.29 26.2259 222.522 25.9744 222.71 25.6761C222.901 25.3778 223.033 25.0369 223.106 24.6534L225.496 24.6662C225.407 25.2884 225.213 25.8722 224.915 26.4176C224.621 26.9631 224.235 27.4446 223.758 27.8622C223.281 28.2756 222.722 28.5994 222.083 28.8338C221.444 29.0639 220.734 29.179 219.955 29.179C218.804 29.179 217.777 28.9126 216.874 28.38C215.97 27.8473 215.259 27.0781 214.739 26.0724C214.219 25.0668 213.959 23.8608 213.959 22.4545C213.959 21.044 214.221 19.8381 214.745 18.8366C215.269 17.831 215.983 17.0618 216.886 16.5291C217.79 15.9964 218.813 15.7301 219.955 15.7301C220.683 15.7301 221.361 15.8324 221.987 16.0369C222.614 16.2415 223.172 16.5419 223.662 16.9382C224.152 17.3303 224.555 17.8118 224.87 18.3828C225.19 18.9496 225.398 19.5973 225.496 20.326ZM231.849 29.1918C230.89 29.1918 230.059 28.9808 229.356 28.5589C228.653 28.1371 228.107 27.5469 227.719 26.7884C227.336 26.0298 227.144 25.1435 227.144 24.1293C227.144 23.1151 227.336 22.2266 227.719 21.4638C228.107 20.701 228.653 20.1087 229.356 19.6868C230.059 19.2649 230.89 19.054 231.849 19.054C232.807 19.054 233.638 19.2649 234.341 19.6868C235.045 20.1087 235.588 20.701 235.971 21.4638C236.359 22.2266 236.553 23.1151 236.553 24.1293C236.553 25.1435 236.359 26.0298 235.971 26.7884C235.588 27.5469 235.045 28.1371 234.341 28.5589C233.638 28.9808 232.807 29.1918 231.849 29.1918ZM231.861 27.3381C232.381 27.3381 232.816 27.1953 233.165 26.9098C233.515 26.62 233.775 26.2322 233.945 25.7464C234.12 25.2607 234.207 24.7195 234.207 24.1229C234.207 23.522 234.12 22.9787 233.945 22.4929C233.775 22.0028 233.515 21.6129 233.165 21.3232C232.816 21.0334 232.381 20.8885 231.861 20.8885C231.329 20.8885 230.885 21.0334 230.532 21.3232C230.182 21.6129 229.92 22.0028 229.746 22.4929C229.575 22.9787 229.49 23.522 229.49 24.1229C229.49 24.7195 229.575 25.2607 229.746 25.7464C229.92 26.2322 230.182 26.62 230.532 26.9098C230.885 27.1953 231.329 27.3381 231.861 27.3381ZM244.775 24.8707V19.1818H247.089V29H244.845V27.255H244.743C244.521 27.8047 244.157 28.2543 243.65 28.6037C243.147 28.9531 242.527 29.1278 241.79 29.1278C241.146 29.1278 240.577 28.9851 240.083 28.6996C239.593 28.4098 239.21 27.9901 238.933 27.4403C238.656 26.8864 238.517 26.2173 238.517 25.4332V19.1818H240.831V25.0753C240.831 25.6974 241.001 26.1918 241.342 26.5582C241.683 26.9247 242.131 27.108 242.685 27.108C243.026 27.108 243.356 27.0249 243.675 26.8587C243.995 26.6925 244.257 26.4453 244.462 26.1172C244.67 25.7848 244.775 25.3693 244.775 24.8707ZM249.468 29V19.1818H251.712V20.8182H251.814C251.993 20.2514 252.3 19.8146 252.735 19.5078C253.173 19.1967 253.674 19.0412 254.237 19.0412C254.365 19.0412 254.507 19.0476 254.665 19.0604C254.827 19.0689 254.961 19.0838 255.068 19.1051V21.2337C254.97 21.1996 254.814 21.1697 254.601 21.1442C254.392 21.1143 254.19 21.0994 253.994 21.0994C253.572 21.0994 253.193 21.1911 252.856 21.3743C252.524 21.5533 252.262 21.8026 252.07 22.1222C251.878 22.4418 251.782 22.8104 251.782 23.228V29H249.468ZM264.365 21.777L262.256 22.0071C262.196 21.794 262.091 21.5938 261.942 21.4062C261.797 21.2188 261.601 21.0675 261.354 20.9524C261.107 20.8374 260.805 20.7798 260.447 20.7798C259.965 20.7798 259.56 20.8842 259.232 21.093C258.908 21.3018 258.748 21.5724 258.753 21.9048C258.748 22.1903 258.853 22.4226 259.066 22.6016C259.283 22.7805 259.641 22.9276 260.14 23.0426L261.814 23.4006C262.743 23.6009 263.434 23.9183 263.885 24.353C264.341 24.7876 264.572 25.3565 264.576 26.0597C264.572 26.6776 264.39 27.223 264.032 27.696C263.679 28.1648 263.187 28.5312 262.556 28.7955C261.925 29.0597 261.201 29.1918 260.383 29.1918C259.181 29.1918 258.214 28.9403 257.481 28.4375C256.748 27.9304 256.311 27.2251 256.17 26.3217L258.427 26.1044C258.529 26.5476 258.746 26.8821 259.079 27.108C259.411 27.3338 259.844 27.4467 260.376 27.4467C260.926 27.4467 261.367 27.3338 261.699 27.108C262.036 26.8821 262.204 26.603 262.204 26.2706C262.204 25.9893 262.096 25.7571 261.878 25.5739C261.665 25.3906 261.333 25.25 260.881 25.152L259.206 24.8004C258.265 24.6044 257.568 24.2741 257.116 23.8097C256.665 23.3409 256.441 22.7486 256.445 22.0327C256.441 21.4276 256.605 20.9034 256.937 20.4602C257.274 20.0128 257.741 19.6676 258.337 19.4247C258.938 19.1776 259.631 19.054 260.415 19.054C261.565 19.054 262.471 19.299 263.131 19.7891C263.796 20.2791 264.207 20.9418 264.365 21.777ZM270.83 29.1918C269.846 29.1918 268.996 28.9872 268.28 28.5781C267.568 28.1648 267.021 27.581 266.637 26.8267C266.254 26.0682 266.062 25.1754 266.062 24.1484C266.062 23.1385 266.254 22.2521 266.637 21.4893C267.025 20.7223 267.566 20.1257 268.261 19.6996C268.955 19.2692 269.771 19.054 270.709 19.054C271.314 19.054 271.885 19.152 272.422 19.348C272.963 19.5398 273.441 19.8381 273.854 20.2429C274.271 20.6477 274.6 21.1634 274.838 21.7898C275.077 22.4119 275.196 23.1534 275.196 24.0142V24.7237H267.149V23.1641H272.978C272.974 22.7209 272.878 22.3267 272.691 21.9815C272.503 21.6321 272.241 21.3572 271.904 21.157C271.572 20.9567 271.184 20.8565 270.741 20.8565C270.268 20.8565 269.852 20.9716 269.494 21.2017C269.137 21.4276 268.857 21.7259 268.657 22.0966C268.461 22.4631 268.361 22.8658 268.357 23.3047V24.6662C268.357 25.2372 268.461 25.7273 268.67 26.1364C268.879 26.5412 269.171 26.8523 269.546 27.0696C269.921 27.2827 270.36 27.3892 270.862 27.3892C271.199 27.3892 271.504 27.3423 271.776 27.2486C272.049 27.1506 272.286 27.0078 272.486 26.8203C272.686 26.6328 272.838 26.4006 272.94 26.1236L275.1 26.3665C274.964 26.9375 274.704 27.4361 274.32 27.8622C273.941 28.2841 273.455 28.6122 272.863 28.8466C272.271 29.0767 271.593 29.1918 270.83 29.1918ZM284.914 21.777L282.804 22.0071C282.745 21.794 282.64 21.5938 282.491 21.4062C282.346 21.2188 282.15 21.0675 281.903 20.9524C281.656 20.8374 281.353 20.7798 280.995 20.7798C280.514 20.7798 280.109 20.8842 279.781 21.093C279.457 21.3018 279.297 21.5724 279.301 21.9048C279.297 22.1903 279.402 22.4226 279.615 22.6016C279.832 22.7805 280.19 22.9276 280.689 23.0426L282.363 23.4006C283.292 23.6009 283.983 23.9183 284.434 24.353C284.89 24.7876 285.12 25.3565 285.125 26.0597C285.12 26.6776 284.939 27.223 284.581 27.696C284.228 28.1648 283.735 28.5312 283.105 28.7955C282.474 29.0597 281.75 29.1918 280.931 29.1918C279.73 29.1918 278.762 28.9403 278.029 28.4375C277.297 27.9304 276.86 27.2251 276.719 26.3217L278.975 26.1044C279.078 26.5476 279.295 26.8821 279.627 27.108C279.96 27.3338 280.392 27.4467 280.925 27.4467C281.475 27.4467 281.916 27.3338 282.248 27.108C282.585 26.8821 282.753 26.603 282.753 26.2706C282.753 25.9893 282.645 25.7571 282.427 25.5739C282.214 25.3906 281.882 25.25 281.43 25.152L279.755 24.8004C278.814 24.6044 278.117 24.2741 277.665 23.8097C277.213 23.3409 276.99 22.7486 276.994 22.0327C276.99 21.4276 277.154 20.9034 277.486 20.4602C277.823 20.0128 278.289 19.6676 278.886 19.4247C279.487 19.1776 280.179 19.054 280.963 19.054C282.114 19.054 283.02 19.299 283.68 19.7891C284.345 20.2791 284.756 20.9418 284.914 21.777Z" fill="#19191C"/>
<path d="M354.716 17.897V15.9091H365.161V17.897H361.114V29H358.762V17.897H354.716ZM369.994 29.1918C369.01 29.1918 368.16 28.9872 367.444 28.5781C366.732 28.1648 366.185 27.581 365.801 26.8267C365.418 26.0682 365.226 25.1754 365.226 24.1484C365.226 23.1385 365.418 22.2521 365.801 21.4893C366.189 20.7223 366.73 20.1257 367.425 19.6996C368.119 19.2692 368.936 19.054 369.873 19.054C370.478 19.054 371.049 19.152 371.586 19.348C372.127 19.5398 372.605 19.8381 373.018 20.2429C373.436 20.6477 373.764 21.1634 374.002 21.7898C374.241 22.4119 374.36 23.1534 374.36 24.0142V24.7237H366.313V23.1641H372.142C372.138 22.7209 372.042 22.3267 371.855 21.9815C371.667 21.6321 371.405 21.3572 371.068 21.157C370.736 20.9567 370.348 20.8565 369.905 20.8565C369.432 20.8565 369.017 20.9716 368.659 21.2017C368.301 21.4276 368.021 21.7259 367.821 22.0966C367.625 22.4631 367.525 22.8658 367.521 23.3047V24.6662C367.521 25.2372 367.625 25.7273 367.834 26.1364C368.043 26.5412 368.335 26.8523 368.71 27.0696C369.085 27.2827 369.524 27.3892 370.026 27.3892C370.363 27.3892 370.668 27.3423 370.941 27.2486C371.213 27.1506 371.45 27.0078 371.65 26.8203C371.85 26.6328 372.002 26.4006 372.104 26.1236L374.264 26.3665C374.128 26.9375 373.868 27.4361 373.485 27.8622C373.105 28.2841 372.619 28.6122 372.027 28.8466C371.435 29.0767 370.757 29.1918 369.994 29.1918ZM379.143 29.1982C378.521 29.1982 377.961 29.0874 377.462 28.8658C376.968 28.6399 376.576 28.3075 376.286 27.8686C376 27.4297 375.858 26.8885 375.858 26.245C375.858 25.6911 375.96 25.233 376.164 24.8707C376.369 24.5085 376.648 24.2188 377.002 24.0014C377.355 23.7841 377.754 23.62 378.197 23.5092C378.645 23.3942 379.107 23.3111 379.584 23.2599C380.159 23.2003 380.626 23.147 380.984 23.1001C381.342 23.049 381.602 22.9723 381.764 22.87C381.93 22.7635 382.013 22.5994 382.013 22.3778V22.3395C382.013 21.858 381.87 21.4851 381.585 21.2209C381.299 20.9567 380.888 20.8246 380.351 20.8246C379.784 20.8246 379.335 20.9482 379.002 21.1953C378.674 21.4425 378.453 21.7344 378.338 22.071L376.177 21.7642C376.348 21.1676 376.629 20.669 377.021 20.2685C377.413 19.8636 377.892 19.5611 378.459 19.3608C379.026 19.1562 379.652 19.054 380.338 19.054C380.811 19.054 381.282 19.1094 381.751 19.2202C382.22 19.331 382.648 19.5142 383.036 19.7699C383.424 20.0213 383.735 20.3643 383.969 20.799C384.208 21.2337 384.327 21.777 384.327 22.429V29H382.103V27.6513H382.026C381.885 27.924 381.687 28.1797 381.431 28.4183C381.18 28.6527 380.863 28.8423 380.479 28.9872C380.1 29.1278 379.654 29.1982 379.143 29.1982ZM379.744 27.4979C380.208 27.4979 380.611 27.4062 380.952 27.223C381.293 27.0355 381.555 26.7884 381.738 26.4815C381.926 26.1747 382.02 25.8402 382.02 25.478V24.321C381.947 24.3807 381.824 24.4361 381.649 24.4872C381.478 24.5384 381.287 24.5831 381.074 24.6214C380.86 24.6598 380.65 24.6939 380.441 24.7237C380.232 24.7536 380.051 24.7791 379.897 24.8004C379.552 24.8473 379.243 24.924 378.971 25.0305C378.698 25.1371 378.483 25.2862 378.325 25.478C378.167 25.6655 378.088 25.9084 378.088 26.2067C378.088 26.6328 378.244 26.9545 378.555 27.1719C378.866 27.3892 379.262 27.4979 379.744 27.4979ZM390.936 29.1918C389.956 29.1918 389.115 28.9766 388.412 28.5462C387.713 28.1158 387.174 27.5213 386.794 26.7628C386.419 26 386.232 25.1222 386.232 24.1293C386.232 23.1321 386.424 22.2521 386.807 21.4893C387.191 20.7223 387.732 20.1257 388.431 19.6996C389.134 19.2692 389.965 19.054 390.924 19.054C391.721 19.054 392.426 19.201 393.039 19.495C393.657 19.7848 394.15 20.196 394.516 20.7287C394.882 21.2571 395.091 21.875 395.142 22.5824H392.931C392.841 22.1094 392.628 21.7152 392.292 21.3999C391.959 21.0803 391.514 20.9205 390.956 20.9205C390.483 20.9205 390.067 21.0483 389.709 21.304C389.351 21.5554 389.072 21.9176 388.872 22.3906C388.676 22.8636 388.578 23.4304 388.578 24.0909C388.578 24.7599 388.676 25.3352 388.872 25.8168C389.068 26.294 389.343 26.6626 389.696 26.9226C390.054 27.1783 390.474 27.3061 390.956 27.3061C391.297 27.3061 391.601 27.2422 391.87 27.1143C392.142 26.9822 392.37 26.7926 392.554 26.5455C392.737 26.2983 392.863 25.9979 392.931 25.6442H395.142C395.087 26.3388 394.882 26.9545 394.529 27.4915C394.175 28.0241 393.694 28.4418 393.084 28.7443C392.475 29.0426 391.759 29.1918 390.936 29.1918ZM399.356 23.2472V29H397.042V15.9091H399.305V20.8501H399.42C399.65 20.2962 400.006 19.8594 400.488 19.5398C400.974 19.2159 401.591 19.054 402.341 19.054C403.023 19.054 403.618 19.1967 404.125 19.4822C404.632 19.7678 405.024 20.1854 405.301 20.7351C405.582 21.2848 405.723 21.956 405.723 22.7486V29H403.409V23.1065C403.409 22.446 403.238 21.9325 402.898 21.5661C402.561 21.1953 402.088 21.0099 401.479 21.0099C401.069 21.0099 400.703 21.0994 400.379 21.2784C400.059 21.4531 399.808 21.7067 399.625 22.0391C399.446 22.3714 399.356 22.7741 399.356 23.2472ZM412.428 29.1918C411.444 29.1918 410.594 28.9872 409.878 28.5781C409.166 28.1648 408.618 27.581 408.235 26.8267C407.851 26.0682 407.66 25.1754 407.66 24.1484C407.66 23.1385 407.851 22.2521 408.235 21.4893C408.623 20.7223 409.164 20.1257 409.858 19.6996C410.553 19.2692 411.369 19.054 412.307 19.054C412.912 19.054 413.483 19.152 414.02 19.348C414.561 19.5398 415.038 19.8381 415.452 20.2429C415.869 20.6477 416.197 21.1634 416.436 21.7898C416.675 22.4119 416.794 23.1534 416.794 24.0142V24.7237H408.746V23.1641H414.576C414.572 22.7209 414.476 22.3267 414.288 21.9815C414.101 21.6321 413.839 21.3572 413.502 21.157C413.17 20.9567 412.782 20.8565 412.339 20.8565C411.866 20.8565 411.45 20.9716 411.092 21.2017C410.734 21.4276 410.455 21.7259 410.255 22.0966C410.059 22.4631 409.959 22.8658 409.954 23.3047V24.6662C409.954 25.2372 410.059 25.7273 410.268 26.1364C410.476 26.5412 410.768 26.8523 411.143 27.0696C411.518 27.2827 411.957 27.3892 412.46 27.3892C412.797 27.3892 413.101 27.3423 413.374 27.2486C413.647 27.1506 413.883 27.0078 414.084 26.8203C414.284 26.6328 414.435 26.4006 414.537 26.1236L416.698 26.3665C416.562 26.9375 416.302 27.4361 415.918 27.8622C415.539 28.2841 415.053 28.6122 414.461 28.8466C413.868 29.0767 413.191 29.1918 412.428 29.1918ZM418.751 29V19.1818H420.995V20.8182H421.097C421.276 20.2514 421.583 19.8146 422.018 19.5078C422.457 19.1967 422.957 19.0412 423.52 19.0412C423.648 19.0412 423.79 19.0476 423.948 19.0604C424.11 19.0689 424.244 19.0838 424.351 19.1051V21.2337C424.253 21.1996 424.097 21.1697 423.884 21.1442C423.675 21.1143 423.473 21.0994 423.277 21.0994C422.855 21.0994 422.476 21.1911 422.139 21.3743C421.807 21.5533 421.545 21.8026 421.353 22.1222C421.161 22.4418 421.065 22.8104 421.065 23.228V29H418.751ZM433.648 21.777L431.539 22.0071C431.479 21.794 431.375 21.5938 431.225 21.4062C431.081 21.2188 430.885 21.0675 430.637 20.9524C430.39 20.8374 430.088 20.7798 429.73 20.7798C429.248 20.7798 428.843 20.8842 428.515 21.093C428.191 21.3018 428.032 21.5724 428.036 21.9048C428.032 22.1903 428.136 22.4226 428.349 22.6016C428.566 22.7805 428.924 22.9276 429.423 23.0426L431.098 23.4006C432.027 23.6009 432.717 23.9183 433.169 24.353C433.625 24.7876 433.855 25.3565 433.859 26.0597C433.855 26.6776 433.674 27.223 433.316 27.696C432.962 28.1648 432.47 28.5312 431.839 28.7955C431.208 29.0597 430.484 29.1918 429.666 29.1918C428.464 29.1918 427.497 28.9403 426.764 28.4375C426.031 27.9304 425.594 27.2251 425.453 26.3217L427.71 26.1044C427.812 26.5476 428.029 26.8821 428.362 27.108C428.694 27.3338 429.127 27.4467 429.659 27.4467C430.209 27.4467 430.65 27.3338 430.983 27.108C431.319 26.8821 431.488 26.603 431.488 26.2706C431.488 25.9893 431.379 25.7571 431.162 25.5739C430.949 25.3906 430.616 25.25 430.164 25.152L428.49 24.8004C427.548 24.6044 426.851 24.2741 426.4 23.8097C425.948 23.3409 425.724 22.7486 425.728 22.0327C425.724 21.4276 425.888 20.9034 426.221 20.4602C426.557 20.0128 427.024 19.6676 427.62 19.4247C428.221 19.1776 428.914 19.054 429.698 19.054C430.848 19.054 431.754 19.299 432.414 19.7891C433.079 20.2791 433.49 20.9418 433.648 21.777Z" fill="#19191C"/>
<path d="M484.291 29V15.9091H489.303C490.249 15.9091 491.035 16.0582 491.661 16.3565C492.292 16.6506 492.763 17.0533 493.074 17.5646C493.389 18.076 493.547 18.6555 493.547 19.3033C493.547 19.8359 493.445 20.2919 493.24 20.6712C493.036 21.0462 492.761 21.3509 492.415 21.5852C492.07 21.8196 491.685 21.9879 491.259 22.0902V22.218C491.723 22.2436 492.168 22.3864 492.594 22.6463C493.025 22.902 493.376 23.2642 493.649 23.733C493.922 24.2017 494.058 24.7685 494.058 25.4332C494.058 26.1108 493.894 26.7202 493.566 27.2614C493.238 27.7983 492.744 28.2223 492.083 28.5334C491.423 28.8445 490.592 29 489.59 29H484.291ZM486.663 27.0185H489.213C490.074 27.0185 490.694 26.8544 491.073 26.5263C491.457 26.1939 491.648 25.7678 491.648 25.2479C491.648 24.8601 491.553 24.5107 491.361 24.1996C491.169 23.8842 490.896 23.6371 490.543 23.4581C490.189 23.2749 489.767 23.1832 489.277 23.1832H486.663V27.0185ZM486.663 21.4766H489.009C489.418 21.4766 489.786 21.402 490.114 21.2528C490.442 21.0994 490.7 20.8842 490.888 20.6072C491.08 20.326 491.175 19.9936 491.175 19.6101C491.175 19.103 490.996 18.6854 490.638 18.3572C490.285 18.0291 489.759 17.8651 489.06 17.8651H486.663V21.4766ZM498.333 15.9091V29H496.019V15.9091H498.333ZM504.995 29.1918C504.036 29.1918 503.205 28.9808 502.502 28.5589C501.799 28.1371 501.254 27.5469 500.866 26.7884C500.482 26.0298 500.29 25.1435 500.29 24.1293C500.29 23.1151 500.482 22.2266 500.866 21.4638C501.254 20.701 501.799 20.1087 502.502 19.6868C503.205 19.2649 504.036 19.054 504.995 19.054C505.954 19.054 506.785 19.2649 507.488 19.6868C508.191 20.1087 508.734 20.701 509.118 21.4638C509.506 22.2266 509.7 23.1151 509.7 24.1293C509.7 25.1435 509.506 26.0298 509.118 26.7884C508.734 27.5469 508.191 28.1371 507.488 28.5589C506.785 28.9808 505.954 29.1918 504.995 29.1918ZM505.008 27.3381C505.528 27.3381 505.962 27.1953 506.312 26.9098C506.661 26.62 506.921 26.2322 507.092 25.7464C507.266 25.2607 507.354 24.7195 507.354 24.1229C507.354 23.522 507.266 22.9787 507.092 22.4929C506.921 22.0028 506.661 21.6129 506.312 21.3232C505.962 21.0334 505.528 20.8885 505.008 20.8885C504.475 20.8885 504.032 21.0334 503.678 21.3232C503.329 21.6129 503.067 22.0028 502.892 22.4929C502.722 22.9787 502.636 23.522 502.636 24.1229C502.636 24.7195 502.722 25.2607 502.892 25.7464C503.067 26.2322 503.329 26.62 503.678 26.9098C504.032 27.1953 504.475 27.3381 505.008 27.3381ZM515.933 32.8864C515.102 32.8864 514.389 32.7734 513.792 32.5476C513.195 32.326 512.716 32.0277 512.354 31.6527C511.992 31.2777 511.74 30.8622 511.6 30.4062L513.683 29.9013C513.777 30.093 513.914 30.2827 514.093 30.4702C514.271 30.6619 514.512 30.8196 514.815 30.9432C515.122 31.071 515.507 31.1349 515.972 31.1349C516.628 31.1349 517.171 30.9751 517.602 30.6555C518.032 30.3402 518.247 29.8203 518.247 29.0959V27.2358H518.132C518.013 27.4744 517.838 27.7195 517.608 27.9709C517.382 28.2223 517.082 28.4332 516.707 28.6037C516.336 28.7741 515.869 28.8594 515.307 28.8594C514.553 28.8594 513.869 28.6825 513.255 28.3288C512.646 27.9709 512.16 27.4382 511.798 26.7308C511.44 26.0192 511.261 25.1286 511.261 24.0589C511.261 22.9808 511.44 22.071 511.798 21.3295C512.16 20.5838 512.648 20.0192 513.262 19.6357C513.875 19.2479 514.559 19.054 515.313 19.054C515.889 19.054 516.362 19.152 516.732 19.348C517.107 19.5398 517.406 19.772 517.627 20.0447C517.849 20.3132 518.017 20.5668 518.132 20.8054H518.26V19.1818H520.542V29.1598C520.542 29.9993 520.342 30.6939 519.941 31.2436C519.541 31.7933 518.993 32.2045 518.298 32.4773C517.604 32.75 516.816 32.8864 515.933 32.8864ZM515.953 27.044C516.443 27.044 516.86 26.9247 517.205 26.6861C517.551 26.4474 517.813 26.1044 517.992 25.657C518.171 25.2095 518.26 24.6726 518.26 24.0462C518.26 23.4283 518.171 22.8871 517.992 22.4226C517.817 21.9581 517.557 21.598 517.212 21.3423C516.871 21.0824 516.451 20.9524 515.953 20.9524C515.437 20.9524 515.007 21.0866 514.661 21.3551C514.316 21.6236 514.056 21.9922 513.882 22.4609C513.707 22.9254 513.619 23.4538 513.619 24.0462C513.619 24.647 513.707 25.1733 513.882 25.625C514.061 26.0724 514.323 26.4219 514.668 26.6733C515.017 26.9205 515.445 27.044 515.953 27.044Z" fill="#19191C"/>
<path d="M294 21L300 27L306 21" stroke="#19191C" stroke-width="2" stroke-linecap="square"/>
<rect width="10.8547" height="10.8547" transform="matrix(0.703508 -0.710687 0.703508 0.710687 3.18164 20)" fill="#19191C"/>
<rect width="10.8547" height="10.8547" transform="matrix(0.703508 -0.710687 0.703508 0.710687 13.3633 9.71436)" fill="#504DEE"/>
<rect width="10.8547" height="10.8547" transform="matrix(0.703508 -0.710687 0.703508 0.710687 23.5449 20)" fill="#19191C"/>
<rect width="10.8547" height="10.8547" transform="matrix(0.703508 -0.710687 0.703508 0.710687 13.3633 30.2856)" fill="#504DEE"/>
<line x1="-4.32699e-08" y1="20.001" x2="42" y2="20.001" stroke="#19191C" stroke-width="4"/>
<path d="M67.8807 11.5455H72.0909V22.804C72.0909 24.1051 71.7813 25.2386 71.1619 26.2045C70.5426 27.1648 69.679 27.9091 68.571 28.4375C67.4631 28.9602 66.1761 29.2216 64.7102 29.2216C63.2273 29.2216 61.9318 28.9602 60.8239 28.4375C59.7159 27.9091 58.8551 27.1648 58.2415 26.2045C57.6278 25.2386 57.321 24.1051 57.321 22.804V11.5455H61.5398V22.4375C61.5398 23.0398 61.6705 23.5767 61.9318 24.0483C62.1989 24.5199 62.571 24.8892 63.0483 25.1562C63.5256 25.4233 64.0795 25.5568 64.7102 25.5568C65.3409 25.5568 65.892 25.4233 66.3636 25.1562C66.8409 24.8892 67.2131 24.5199 67.4801 24.0483C67.7472 23.5767 67.8807 23.0398 67.8807 22.4375V11.5455ZM74.7351 33.9091V15.9091H78.8601V18.1506H78.9879C79.1584 17.7528 79.3999 17.3693 79.7124 17C80.0305 16.6307 80.4339 16.3295 80.9226 16.0966C81.4169 15.858 82.0078 15.7386 82.6953 15.7386C83.6044 15.7386 84.4538 15.9773 85.2436 16.4545C86.0391 16.9318 86.6811 17.6676 87.1697 18.6619C87.6584 19.6562 87.9027 20.9233 87.9027 22.4631C87.9027 23.946 87.6669 25.1875 87.1953 26.1875C86.7294 27.1875 86.0987 27.9375 85.3033 28.4375C84.5135 28.9375 83.6357 29.1875 82.6697 29.1875C82.0107 29.1875 81.4396 29.0795 80.9567 28.8636C80.4737 28.6477 80.0675 28.3636 79.7379 28.0114C79.4141 27.6591 79.1641 27.2812 78.9879 26.8778H78.9027V33.9091H74.7351ZM78.8175 22.4545C78.8175 23.1591 78.9112 23.7727 79.0987 24.2955C79.2919 24.8182 79.5675 25.2244 79.9254 25.5142C80.2891 25.7983 80.7237 25.9403 81.2294 25.9403C81.7408 25.9403 82.1754 25.7983 82.5334 25.5142C82.8913 25.2244 83.1612 24.8182 83.343 24.2955C83.5305 23.7727 83.6243 23.1591 83.6243 22.4545C83.6243 21.75 83.5305 21.1392 83.343 20.6222C83.1612 20.1051 82.8913 19.7045 82.5334 19.4205C82.1811 19.1364 81.7464 18.9943 81.2294 18.9943C80.718 18.9943 80.2834 19.1335 79.9254 19.4119C79.5675 19.6903 79.2919 20.0881 79.0987 20.6051C78.9112 21.1222 78.8175 21.7386 78.8175 22.4545ZM96.5384 29H90.0866V11.5455H96.5298C98.3082 11.5455 99.8395 11.8949 101.124 12.5938C102.413 13.2869 103.408 14.2869 104.107 15.5938C104.805 16.8949 105.155 18.4517 105.155 20.2642C105.155 22.0824 104.805 23.6449 104.107 24.9517C103.413 26.2585 102.422 27.2614 101.132 27.9602C99.8423 28.6534 98.3111 29 96.5384 29ZM94.3054 25.4034H96.3764C97.3537 25.4034 98.1804 25.2386 98.8565 24.9091C99.5384 24.5739 100.053 24.0312 100.399 23.2812C100.751 22.5256 100.928 21.5199 100.928 20.2642C100.928 19.0085 100.751 18.0085 100.399 17.2642C100.047 16.5142 99.527 15.9744 98.8395 15.6449C98.1577 15.3097 97.3168 15.142 96.3168 15.142H94.3054V25.4034ZM111.308 29.2216C110.473 29.2216 109.732 29.0824 109.084 28.804C108.442 28.5199 107.933 28.0937 107.558 27.5256C107.189 26.9517 107.004 26.233 107.004 25.3693C107.004 24.642 107.132 24.0284 107.388 23.5284C107.643 23.0284 107.996 22.6222 108.445 22.3097C108.893 21.9972 109.411 21.7614 109.996 21.6023C110.581 21.4375 111.206 21.3267 111.871 21.2699C112.615 21.2017 113.214 21.1307 113.669 21.0568C114.124 20.9773 114.453 20.8665 114.658 20.7244C114.868 20.5767 114.973 20.3693 114.973 20.1023V20.0597C114.973 19.6222 114.822 19.2841 114.521 19.0455C114.22 18.8068 113.814 18.6875 113.303 18.6875C112.751 18.6875 112.308 18.8068 111.973 19.0455C111.638 19.2841 111.425 19.6136 111.334 20.0341L107.49 19.8977C107.604 19.1023 107.896 18.392 108.368 17.767C108.845 17.1364 109.499 16.642 110.328 16.2841C111.163 15.9205 112.166 15.7386 113.337 15.7386C114.172 15.7386 114.942 15.8381 115.646 16.0369C116.351 16.2301 116.964 16.5142 117.487 16.8892C118.01 17.2585 118.413 17.7131 118.697 18.2528C118.987 18.7926 119.132 19.4091 119.132 20.1023V29H115.212V27.1761H115.109C114.876 27.6193 114.578 27.9943 114.214 28.3011C113.857 28.608 113.433 28.8381 112.945 28.9915C112.462 29.1449 111.916 29.2216 111.308 29.2216ZM112.595 26.4943C113.044 26.4943 113.447 26.4034 113.805 26.2216C114.169 26.0398 114.459 25.7898 114.675 25.4716C114.891 25.1477 114.999 24.7727 114.999 24.3466V23.1023C114.879 23.1648 114.734 23.2216 114.564 23.2727C114.399 23.3239 114.217 23.3722 114.018 23.4176C113.82 23.4631 113.615 23.5028 113.405 23.5369C113.195 23.571 112.993 23.6023 112.8 23.6307C112.408 23.6932 112.072 23.7898 111.794 23.9205C111.521 24.0511 111.311 24.2216 111.163 24.4318C111.021 24.6364 110.95 24.8807 110.95 25.1648C110.95 25.5966 111.104 25.9261 111.411 26.1534C111.723 26.3807 112.118 26.4943 112.595 26.4943ZM129.07 15.9091V18.9773H120.811V15.9091H129.07ZM122.541 12.7727H126.709V24.8835C126.709 25.1392 126.749 25.3466 126.828 25.5057C126.913 25.6591 127.036 25.7699 127.195 25.8381C127.354 25.9006 127.544 25.9318 127.766 25.9318C127.925 25.9318 128.092 25.9176 128.268 25.8892C128.45 25.8551 128.587 25.8267 128.678 25.804L129.308 28.8125C129.109 28.8693 128.828 28.9403 128.464 29.0256C128.107 29.1108 127.678 29.1648 127.178 29.1875C126.2 29.233 125.362 29.1193 124.663 28.8466C123.97 28.5682 123.439 28.1364 123.07 27.5511C122.706 26.9659 122.53 26.2301 122.541 25.3438V12.7727ZM137.175 29.2472C135.805 29.2472 134.624 28.9773 133.629 28.4375C132.641 27.892 131.879 27.1165 131.345 26.1108C130.817 25.0994 130.553 23.8977 130.553 22.5057C130.553 21.1534 130.82 19.9716 131.354 18.9602C131.888 17.9432 132.641 17.1534 133.612 16.5909C134.584 16.0227 135.729 15.7386 137.047 15.7386C137.979 15.7386 138.831 15.8835 139.604 16.1733C140.376 16.4631 141.044 16.892 141.607 17.4602C142.169 18.0284 142.607 18.7301 142.919 19.5653C143.232 20.3949 143.388 21.3466 143.388 22.4205V23.4602H132.01V21.0398H139.51C139.504 20.5966 139.399 20.2017 139.195 19.8551C138.99 19.5085 138.709 19.2386 138.351 19.0455C137.999 18.8466 137.592 18.7472 137.132 18.7472C136.666 18.7472 136.249 18.8523 135.879 19.0625C135.51 19.267 135.217 19.5483 135.001 19.9062C134.786 20.2585 134.672 20.6591 134.661 21.108V23.571C134.661 24.1051 134.766 24.5739 134.976 24.9773C135.186 25.375 135.484 25.6847 135.871 25.9062C136.257 26.1278 136.717 26.2386 137.251 26.2386C137.621 26.2386 137.956 26.1875 138.257 26.0852C138.558 25.983 138.817 25.8324 139.033 25.6335C139.249 25.4347 139.411 25.1903 139.518 24.9006L143.345 25.0114C143.186 25.8693 142.837 26.6165 142.297 27.2528C141.763 27.8835 141.061 28.375 140.192 28.7273C139.322 29.0739 138.317 29.2472 137.175 29.2472Z" fill="#19191C"/>
</svg>
